<?xml version="1.0" encoding="utf-8"?>
<!-- Generator: Adobe Illustrator 26.0.0, SVG Export Plug-In . SVG Version: 6.00 Build 0)  -->
<svg version="1.1" id="Layer_1" xmlns="http://www.w3.org/2000/svg" xmlns:xlink="http://www.w3.org/1999/xlink" x="0px" y="0px"
	 viewBox="0 0 500 500" style="enable-background:new 0 0 500 500;" xml:space="preserve">
<style type="text/css">
	.st0{fill:#FFFFFF;}
	.st1{fill:url(#SVGID_1_);}
	.st2{fill:url(#SVGID_00000177464079852722126480000009382047313480444829_);}
	.st3{opacity:0.2;clip-path:url(#SVGID_00000123401632212704432890000016241904744982027443_);fill:#FFFFFF;}
	.st4{opacity:0.2;clip-path:url(#SVGID_00000168075136552637266510000001164156952485401236_);fill:#FFFFFF;}
</style>
<rect class="st0" width="500" height="500"/>
<g>
	<g>
		<linearGradient id="SVGID_1_" gradientUnits="userSpaceOnUse" x1="128.6827" y1="180.1802" x2="241.8198" y2="293.3173">
			<stop  offset="0" style="stop-color:#00B0FF"/>
			<stop  offset="1" style="stop-color:#2979FF"/>
		</linearGradient>
		<path class="st1" d="M230,122h-20c-5.52,0-10,4.48-10,10v60.71c-30.6-17.69-70.39-13.46-96.57,12.72
			c-31.24,31.24-31.24,81.9,0,113.14c31.24,31.24,81.9,31.24,113.14,0C232.19,302.95,240,282.47,240,262V132
			C240,126.48,235.52,122,230,122z M187.87,289.99c-15.62,15.62-40.95,15.62-56.57,0c-15.62-15.62-15.62-40.95,0-56.57
			c15.62-15.62,40.95-15.62,56.57,0C203.49,249.04,203.49,274.37,187.87,289.99z"/>
		
			<linearGradient id="SVGID_00000152251518651709927030000012876839566551480482_" gradientUnits="userSpaceOnUse" x1="264.4731" y1="224.3898" x2="377.6102" y2="337.5269">
			<stop  offset="0" style="stop-color:#00B0FF"/>
			<stop  offset="1" style="stop-color:#2979FF"/>
		</linearGradient>
		<path style="fill:url(#SVGID_00000152251518651709927030000012876839566551480482_);" d="M396.57,205.43
			c-31.24-31.24-81.9-31.24-113.14,0c-14.6,14.6-22.38,33.45-23.33,52.57H260v108c0,6.63,5.37,12,12,12h16c6.63,0,12-5.37,12-12
			v-34.71c30.6,17.69,70.39,13.46,96.57-12.72C427.81,287.33,427.81,236.67,396.57,205.43z M368.7,290.58
			c-15.62,15.62-40.95,15.62-56.57,0s-15.62-40.95,0-56.57s40.95-15.62,56.57,0S384.32,274.96,368.7,290.58z"/>
	</g>
	<g>
		<defs>
			<path id="SVGID_00000114063124627917729770000017886299080866764180_" d="M230,122h-20c-5.52,0-10,4.48-10,10v60.71
				c-30.6-17.69-70.39-13.46-96.57,12.72c-31.24,31.24-31.24,81.9,0,113.14c31.24,31.24,81.9,31.24,113.14,0
				C232.19,302.95,240,282.47,240,262V132C240,126.48,235.52,122,230,122z M187.87,289.99c-15.62,15.62-40.95,15.62-56.57,0
				c-15.62-15.62-15.62-40.95,0-56.57c15.62-15.62,40.95-15.62,56.57,0C203.49,249.04,203.49,274.37,187.87,289.99z"/>
		</defs>
		<clipPath id="SVGID_00000037688257794057567370000004187647689001802943_">
			<use xlink:href="#SVGID_00000114063124627917729770000017886299080866764180_"  style="overflow:visible;"/>
		</clipPath>
		<path style="opacity:0.2;clip-path:url(#SVGID_00000037688257794057567370000004187647689001802943_);fill:#FFFFFF;" d="M47,386
			c12.5-16.99,9.75-59.78,18-82c13-35,46-67,95-67c71,0,84.76,62.12,124,74c76,23,111.32-48.49,147-34l21,118L47,386z"/>
	</g>
	<g>
		<defs>
			<path id="SVGID_00000080905962441573354180000003879311919623824001_" d="M396.57,205.43c-31.24-31.24-81.9-31.24-113.14,0
				c-14.6,14.6-22.38,33.45-23.33,52.57H260v108c0,6.63,5.37,12,12,12h16c6.63,0,12-5.37,12-12v-34.71
				c30.6,17.69,70.39,13.46,96.57-12.72C427.81,287.33,427.81,236.67,396.57,205.43z M368.7,290.58
				c-15.62,15.62-40.95,15.62-56.57,0s-15.62-40.95,0-56.57s40.95-15.62,56.57,0S384.32,274.96,368.7,290.58z"/>
		</defs>
		<clipPath id="SVGID_00000062159468512560881330000003830685316937257655_">
			<use xlink:href="#SVGID_00000080905962441573354180000003879311919623824001_"  style="overflow:visible;"/>
		</clipPath>
		<path style="opacity:0.2;clip-path:url(#SVGID_00000062159468512560881330000003830685316937257655_);fill:#FFFFFF;" d="M47,386
			c12.5-16.99,9.75-59.78,18-82c13-35,46-67,95-67c71,0,84.76,62.12,124,74c76,23,111.32-48.49,147-34l21,118L47,386z"/>
	</g>
</g>
</svg>
