<svg width="35" height="35" viewBox="0 0 35 35" fill="none" xmlns="http://www.w3.org/2000/svg">
<path d="M23.5156 1.45834C21.8342 1.55604 19.9038 2.4928 18.7561 3.68571C17.7192 4.77071 16.9011 6.38212 17.2351 7.94108C19.0624 7.98921 20.8965 7.02819 21.9946 5.8134C23.0198 4.67736 23.7971 3.09167 23.5156 1.45834ZM23.6153 7.93823C20.9772 7.93823 19.8742 9.55892 18.0469 9.55892C16.1671 9.55892 14.4487 8.04077 12.1737 8.04077C9.07908 8.04223 4.375 10.9088 4.375 17.6624C4.375 23.8063 9.94242 30.625 13.0851 30.625C14.9941 30.644 15.4569 29.4247 18.0469 29.4116C20.6398 29.3927 21.1993 30.641 23.1112 30.625C25.2637 30.609 26.9447 28.2436 28.1726 26.3696C29.0534 25.028 29.4156 24.343 30.0981 22.8263C25.0333 21.543 24.0256 13.3754 30.0981 11.6866C28.9518 9.73098 25.6059 7.93823 23.6153 7.93823Z" fill="black"/>
</svg>
